<svg width="19" height="18" viewBox="0 0 19 18" fill="none" xmlns="http://www.w3.org/2000/svg">
<path fill-rule="evenodd" clip-rule="evenodd" d="M8.5 0C8.22386 0 8 0.223858 8 0.5V1.75633L3.82111 2.51613C3.34562 2.60258 3 3.01671 3 3.5V7.23366L0.66718 8.05701C0.412525 8.14689 0.205046 8.33594 0.0919391 8.58116C-0.0211683 8.82638 -0.0302879 9.10693 0.0666546 9.35898L2.40962 15.4507C2.08183 15.604 1.77624 15.751 1.5391 15.8664C1.39247 15.9377 1.27147 15.9972 1.18689 16.039L1.08858 16.0877L1.06237 16.1008L1.05544 16.1042L1.05357 16.1052L1.05304 16.1054L1.05288 16.1055C1.05283 16.1056 1.05279 16.1056 1.49948 16.999L1.05279 16.1056C0.558808 16.3526 0.358584 16.9532 0.605573 17.4472C0.852558 17.9412 1.45322 18.1414 1.94719 17.8944L1.94721 17.8944L1.94723 17.8944L1.94753 17.8943L1.94892 17.8936L1.95488 17.8906L1.97905 17.8786L2.07287 17.8321C2.15431 17.7918 2.27159 17.7342 2.41403 17.6649C2.69937 17.526 3.08349 17.3417 3.48156 17.158C3.88208 16.9731 4.28579 16.794 4.61358 16.6629C4.77853 16.5969 4.91095 16.5484 5.00719 16.518C5.03214 16.5102 5.05135 16.5046 5.06541 16.5007C5.7649 16.5159 6.31096 16.7746 6.95865 17.1279C7.01189 17.1569 7.06719 17.1876 7.12449 17.2194C7.72026 17.5497 8.53252 18 9.5 18C10.4675 18 11.2797 17.5497 11.8755 17.2194C11.9328 17.1876 11.9881 17.1569 12.0414 17.1279C12.689 16.7746 13.2351 16.5159 13.9346 16.5007C13.9486 16.5046 13.9679 16.5102 13.9928 16.518C14.089 16.5484 14.2215 16.5969 14.3864 16.6629C14.7142 16.794 15.1179 16.9731 15.5184 17.158C15.9165 17.3417 16.3006 17.526 16.586 17.6649C16.7284 17.7342 16.8457 17.7918 16.9271 17.8321L17.021 17.8786L17.0451 17.8906L17.0511 17.8936L17.0525 17.8943L17.0528 17.8944L17.0528 17.8944L17.0528 17.8944C17.5468 18.1414 18.1474 17.9412 18.3944 17.4472C18.6414 16.9532 18.4412 16.3526 17.9472 16.1056L17.5 17C17.9472 16.1056 17.9472 16.1056 17.9471 16.1055L17.947 16.1054L17.9464 16.1052L17.9446 16.1042L17.9376 16.1008L17.9114 16.0877L17.8131 16.039C17.7285 15.9972 17.6075 15.9377 17.4609 15.8664C17.2238 15.751 16.9182 15.604 16.5904 15.4507L18.9333 9.35898C19.0303 9.10693 19.0212 8.82638 18.9081 8.58116C18.795 8.33594 18.5875 8.14689 18.3328 8.05701L16 7.23366V3.5C16 3.01671 15.6544 2.60258 15.1789 2.51613L11 1.75633V0.5C11 0.223858 10.7761 0 10.5 0H8.5ZM14 4.33458V6.52778L9.83282 5.05701C9.61745 4.981 9.38255 4.981 9.16718 5.05701L5 6.52778V4.33458L9.5 3.51639L14 4.33458ZM14.7506 14.6628L16.6975 9.60076L9.5 7.06046L2.30248 9.60076L4.24942 14.6628C4.30283 14.6441 4.35484 14.6267 4.40492 14.6109C4.5297 14.5715 4.76563 14.5 5 14.5C6.26882 14.5 7.20909 14.9863 7.91635 15.3721L7.95174 15.3914C8.6962 15.7975 9.06733 16 9.5 16C9.93267 16 10.3038 15.7975 11.0483 15.3914L11.0836 15.3721C11.7909 14.9863 12.7312 14.5 14 14.5C14.2344 14.5 14.4703 14.5715 14.5951 14.6109C14.6452 14.6267 14.6972 14.6441 14.7506 14.6628Z" fill="#004E94"/>
</svg>
